<?xml version="1.0" encoding="UTF-8"?>
<svg version="1.1" xmlns="http://www.w3.org/2000/svg" width="5062" height="5679">
<path d="M0 0 C378.51 0 757.02 0 1147 0 C1147 760.98 1147 1521.96 1147 2306 C769.81 2306.33 392.62 2306.66 4 2307 C-47.48 2321.85 -47.48 2321.85 -100 2337 C-140.12088008 2348.47280666 -140.12088008 2348.47280666 -153.30896759 2352.23332596 C-179.70160962 2359.76063673 -206.08120782 2367.33354468 -232.46216667 2374.90167212 C-237.28899301 2376.28636439 -242.11588281 2377.67083529 -246.94281006 2379.05517578 C-276.0933454 2387.41543024 -305.24254377 2395.78028747 -334.38735813 2404.16046661 C-339.38417251 2405.59717892 -344.38113067 2407.03339026 -349.37818909 2408.46925354 C-350.42130641 2408.76898574 -350.42130641 2408.76898574 -351.48549682 2409.07477313 C-354.95283081 2410.07106632 -358.42018405 2411.06729247 -361.88755131 2412.06346989 C-369.25398943 2414.1799727 -376.61991131 2416.29825521 -383.98517323 2418.41884756 C-389.58979154 2420.03235362 -395.19522664 2421.64300684 -400.80095291 2423.25265884 C-403.0810482 2423.90788452 -405.36087255 2424.56405396 -407.6403923 2425.22127914 C-410.77002756 2426.12347753 -413.90064135 2427.02220334 -417.03149414 2427.92016602 C-417.91240565 2428.17502116 -418.79331717 2428.42987631 -419.70092297 2428.69245434 C-427.76333172 2430.99796185 -435.84741465 2432.96185366 -444 2435 C-443.67 2699 -443.34 2963 -443 3235 C-376.30059792 3253.34557378 -376.30059792 3253.34557378 -309.58078003 3271.61624146 C-302.30438686 3273.60423966 -295.02820232 3275.59300043 -287.75206697 3277.58194196 C-276.51250604 3280.65428806 -265.27285432 3283.72630179 -254.03312933 3286.79804766 C-236.5725499 3291.56993287 -219.11235631 3296.34322862 -201.65234375 3301.1171875 C-200.97030357 3301.30367245 -200.28826338 3301.4901574 -199.58555532 3301.68229342 C-190.04208869 3304.29169733 -180.49865186 3306.90121021 -170.95522833 3309.51077175 C-168.94202209 3310.06126348 -166.92881491 3310.61175179 -164.91560745 3311.16223907 C-129.34462811 3320.88870215 -93.77376549 3330.61559329 -58.20437622 3340.34786987 C-54.06792753 3341.47965121 -49.93143133 3342.61125865 -45.79489136 3343.7427063 C-41.05341996 3345.03963134 -36.31205237 3346.33693512 -31.57077026 3347.634552 C-29.86038859 3348.102593 -28.14997106 3348.57050301 -26.43951416 3349.03826904 C-24.12095239 3349.67236228 -21.80252475 3350.30694363 -19.48413086 3350.94165039 C-18.82173873 3351.12268342 -18.1593466 3351.30371645 -17.47688198 3351.49023533 C-13.30903114 3352.63198951 -9.15566193 3353.81266802 -5 3355 C377.14 3355.33 759.28 3355.66 1153 3356 C1153 4120.61 1153 4885.22 1153 5673 C770.53 5673 388.06 5673 -6 5673 C-6 4924.56 -6 4176.12 -6 3405 C-9.63 3404.34 -13.26 3403.68 -17 3403 C-18.92722281 3402.54080803 -20.84847927 3402.05387609 -22.75561523 3401.51733398 C-23.76302261 3401.23676147 -24.77042999 3400.95618896 -25.80836487 3400.66711426 C-26.8809404 3400.36317749 -27.95351593 3400.05924072 -29.05859375 3399.74609375 C-30.2330455 3399.41806763 -31.40749725 3399.0900415 -32.61753845 3398.7520752 C-35.1915445 3398.03296719 -37.7650288 3397.31222308 -40.33782959 3396.58883667 C-47.60810228 3394.54549079 -54.88436218 3392.52357815 -62.16015625 3390.5 C-62.94278839 3390.28218306 -63.72542053 3390.06436611 -64.5317688 3389.83994865 C-84.14940439 3384.38181065 -103.80258426 3379.0553232 -123.45624161 3373.7286644 C-154.73626394 3365.24983994 -186.00248389 3356.72284174 -217.25 3348.125 C-224.77200607 3346.05551922 -232.29411799 3343.98642361 -239.81640625 3341.91796875 C-241.27389691 3341.51719179 -241.27389691 3341.51719179 -242.76083183 3341.10831833 C-270.21540066 3333.56004709 -297.68085305 3326.05151019 -325.14616394 3318.54244232 C-329.0517014 3317.47465138 -332.95718906 3316.40667842 -336.8626709 3315.33868408 C-547.14138651 3257.83950374 -629.28167214 3275.65273613 -908 3275 C-908 2983.61 -908 2692.22 -908 2392 C-776.66 2391.67 -645.32 2391.34 -510 2391 C-489.54 2385.06 -469.08 2379.12 -448 2373 C-437.12446564 2369.87933344 -426.24842928 2366.76185151 -415.36615372 2363.66501236 C-408.10635381 2361.59799845 -400.84825873 2359.52499555 -393.58984375 2357.453125 C-392.28788087 2357.08154738 -392.28788087 2357.08154738 -390.95961571 2356.70246315 C-366.2046771 2349.63689588 -341.46057006 2342.53352322 -316.71575928 2335.43258667 C-312.79661209 2334.30792735 -308.87743479 2333.18337298 -304.95825195 2332.05883789 C-280.08706928 2324.922489 -255.21622965 2317.78494489 -230.34607124 2310.64502716 C-153.91450961 2288.70292397 -77.45932524 2266.8455215 -1 2245 C-0.67 1504.15 -0.34 763.3 0 0 Z " fill="#201E1E" transform="translate(3909,6)"/>
<path d="M0 0 C378.51 0 757.02 0 1147 0 C1147 743.49 1147 1486.98 1147 2253 C1150.63 2253.66 1154.26 2254.32 1158 2255 C1160.50031506 2255.59717989 1162.99312817 2256.22720833 1165.47485352 2256.89746094 C1166.14639465 2257.07749161 1166.81793579 2257.25752228 1167.50982666 2257.44300842 C1169.71734323 2258.03592611 1171.92310057 2258.63512677 1174.12890625 2259.234375 C1175.72506627 2259.66440136 1177.32133715 2260.09401638 1178.91770935 2260.52325439 C1182.33899013 2261.44407278 1185.75950789 2262.36765475 1189.17944336 2263.29345703 C1194.65945047 2264.77690163 1200.1411169 2266.25414817 1205.62304688 2267.73046875 C1212.31825472 2269.53393536 1219.01308359 2271.33879575 1225.70741844 2273.14550018 C1237.39475105 2276.29958315 1249.08497635 2279.44276082 1260.77734375 2282.578125 C1261.61438969 2282.80258804 1262.45143562 2283.02705109 1263.31384659 2283.25831604 C1267.5233125 2284.38706392 1271.73283452 2285.51560238 1275.94238281 2286.64404297 C1283.62401412 2288.70333953 1291.30515386 2290.7644684 1298.98633194 2292.82545471 C1301.55556645 2293.51481274 1304.12481192 2294.20412992 1306.69406128 2294.89343262 C1317.62283111 2297.82551005 1328.55150423 2300.75794778 1339.48013687 2303.6905365 C1347.00757037 2305.71043547 1354.53502772 2307.73024555 1362.0625 2309.75 C1362.89528473 2309.97345093 1363.72806946 2310.19690186 1364.58609009 2310.42712402 C1393.88941648 2318.28963913 1423.19444705 2326.14578834 1452.5 2334 C1475.83252333 2340.25337379 1499.16504341 2346.50675734 1522.49609375 2352.765625 C1523.24652514 2352.96693779 1523.99695652 2353.16825058 1524.77012825 2353.37566376 C1544.18033794 2358.58283468 1563.59008698 2363.79172381 1583 2369 C1735.13957953 2409.81793597 1897.48050145 2391.59610385 2055 2392 C2055 2683.39 2055 2974.78 2055 3275 C1845.615 3275.495 1845.615 3275.495 1632 3276 C1573.35598638 3293.20154366 1573.35598638 3293.20154366 1514.71380615 3310.40933228 C1509.97913889 3311.79897385 1505.24445117 3313.18854573 1500.50976562 3314.578125 C1493.58131054 3316.61155685 1486.65286017 3318.6450048 1479.72441673 3320.67847633 C1467.12751177 3324.37561742 1454.5305638 3328.07261196 1441.93359375 3331.76953125 C1440.98682329 3332.04738653 1440.04005283 3332.32524181 1439.06459236 3332.61151695 C1434.28735535 3334.01352502 1429.51011765 3335.41553074 1424.73287964 3336.8175354 C1416.11393919 3339.34698872 1407.49500486 3341.87646286 1398.87607002 3344.40593529 C1394.08404693 3345.81229103 1389.29202344 3347.21864545 1384.5 3348.625 C1382.58333333 3349.18749999 1380.66666666 3349.74999999 1378.75 3350.3125 C1374.91666667 3351.4375 1371.08333333 3352.5625 1367.25 3353.6875 C1365.82685092 3354.10516333 1365.82685092 3354.10516333 1364.37495136 3354.53126431 C1362.45844684 3355.0937167 1360.5419423 3355.65616901 1358.62543774 3356.21862125 C1353.83129004 3357.62559902 1349.03714273 3359.03257812 1344.24299622 3360.43955994 C1335.64762308 3362.96212095 1327.05224736 3365.48467312 1318.45685673 3368.00717449 C1313.70430878 3369.40191174 1308.95176316 3370.79665692 1304.19921875 3372.19140625 C1303.25666418 3372.46802156 1302.31410961 3372.74463688 1301.34299278 3373.02963448 C1288.37725508 3376.83475859 1275.41162472 3380.64024831 1262.44607544 3384.4460144 C1255.22209427 3386.56646127 1247.99808276 3388.68680474 1240.77406502 3390.807127 C1234.97538452 3392.50910842 1229.17674231 3394.21122022 1223.37813282 3395.91344357 C1219.7394657 3396.98156235 1216.10075825 3398.04954369 1212.46204185 3399.11749458 C1210.83254071 3399.59577526 1209.20305416 3400.07410568 1207.57358742 3400.55250359 C1187.71954991 3406.38140901 1167.85889516 3412.18764044 1148 3418 C1147.67 4160.17 1147.34 4902.34 1147 5667 C768.49 5667 389.98 5667 0 5667 C0 4906.02 0 4145.04 0 3361 C558.36 3360.505 558.36 3360.505 1128 3360 C1169.48453538 3347.94607371 1169.48453538 3347.94607371 1210.93945312 3335.79244995 C1217.21673185 3333.94186509 1223.49486032 3332.09416707 1229.77293777 3330.24629402 C1231.28655473 3329.8007706 1232.80016302 3329.35521777 1234.31376266 3328.90963554 C1253.73223951 3323.19316363 1273.1557054 3317.49369541 1292.57925797 3311.79449844 C1295.5090939 3310.93483168 1298.43892034 3310.07513253 1301.3687439 3309.21542358 C1309.29067284 3306.89086926 1317.21261565 3304.56636221 1325.13459778 3302.24198914 C1338.78779164 3298.23603244 1352.44083365 3294.22955863 1366.09375 3290.22265625 C1367.04034925 3289.94484692 1367.98694851 3289.66703758 1368.96223259 3289.38080978 C1378.49765795 3286.58233685 1388.03306502 3283.7838016 1397.56844616 3280.98517799 C1402.33859332 3279.58514963 1407.10874801 3278.1851469 1411.87890625 3276.78515625 C1413.29658641 3276.36908049 1413.29658641 3276.36908049 1414.74290657 3275.94459915 C1427.50973116 3272.19770114 1440.27686746 3268.45186712 1453.04426575 3264.70692444 C1460.0551336 3262.65048532 1467.06590489 3260.59371714 1474.0766592 3258.53689098 C1478.96743522 3257.1020585 1483.85826985 3255.66742646 1488.74923706 3254.23324585 C1507.15524019 3248.83597039 1525.56019371 3243.43559628 1543.94908714 3237.98026085 C1546.18521584 3237.31695227 1548.42148056 3236.65410437 1550.65779114 3235.9914093 C1552.08444611 3235.56858639 1553.51109718 3235.14575032 1554.93774414 3234.72290039 C1555.96803852 3234.41753089 1555.96803852 3234.41753089 1557.01914692 3234.10599232 C1560.33885833 3233.12164155 1563.65801824 3232.13549727 1566.9760437 3231.14547729 C1570.51560039 3230.08974436 1574.05648561 3229.03858521 1577.59765625 3227.98828125 C1578.62400177 3227.68038666 1579.65034729 3227.37249207 1580.70779419 3227.05526733 C1582.09972488 3226.6437291 1582.09972488 3226.6437291 1583.51977539 3226.22387695 C1584.31928116 3225.98554642 1585.11878693 3225.74721588 1585.94252014 3225.50166321 C1588 3225 1588 3225 1591 3225 C1591 2963.97 1591 2702.94 1591 2434 C1585.39 2432.68 1579.78 2431.36 1574 2430 C1570.89413445 2429.20847763 1567.79770896 2428.40965232 1564.70507812 2427.57177734 C1563.91015426 2427.3587862 1563.11523039 2427.14579506 1562.29621792 2426.92634964 C1559.70722584 2426.23201114 1557.11924027 2425.53399977 1554.53125 2424.8359375 C1552.64805814 2424.33011763 1550.76480117 2423.82454011 1548.88148499 2423.31918335 C1544.8579276 2422.23900578 1540.83480969 2421.15721232 1536.81204224 2420.07409668 C1530.37661276 2418.34139587 1523.94021179 2416.61232324 1517.50366211 2414.88378906 C1509.6329512 2412.76988088 1501.76246059 2410.65515629 1493.89225292 2408.53937531 C1479.8998779 2404.7778716 1465.90562114 2401.02342726 1451.91015625 2397.2734375 C1450.89802944 2397.00223965 1449.88590263 2396.73104179 1448.84310532 2396.45162582 C1444.78013923 2395.3629848 1440.71716035 2394.27439159 1436.65416145 2393.18587303 C1425.52047494 2390.20304056 1414.38715406 2387.21884443 1403.25390625 2384.234375 C1402.26732151 2383.96990696 1401.28073677 2383.70543892 1400.26425552 2383.4329567 C1378.18345559 2377.513796 1356.10397798 2371.58970973 1334.02468872 2365.66491699 C1303.81045467 2357.55723011 1273.59420061 2349.45709009 1243.37734985 2341.35916138 C1221.17126653 2335.40805624 1198.96565584 2329.45520225 1176.76171875 2323.49609375 C1174.81873608 2322.97465904 1172.87575309 2322.45322551 1170.93276978 2321.93179321 C1162.67419178 2319.71541694 1154.41566775 2317.49884032 1146.15736675 2315.28143215 C1142.84914893 2314.39321884 1139.54085984 2313.50527122 1136.23255348 2312.61738777 C1134.70749395 2312.2080226 1133.18246745 2311.79853439 1131.65747643 2311.38891411 C1129.5857801 2310.83245293 1127.5139729 2310.27640645 1125.44213867 2309.72045898 C1124.2868718 2309.41027328 1123.13160492 2309.10008759 1121.94132996 2308.78050232 C760.46965343 2212.86148401 373.98144139 2306.33540936 0 2306 C0 1545.02 0 784.04 0 0 Z " fill="#201E1E" transform="translate(0,6)"/>
<path d="M0 0 C382.14 0 764.28 0 1158 0 C1158 764.94 1158 1529.88 1158 2318 C775.86 2318 393.72 2318 0 2318 C0 1553.06 0 788.12 0 0 Z " fill="#A9CF46" transform="translate(1949,0)"/>
<path d="M0 0 C382.14 0 764.28 0 1158 0 C1158 764.61 1158 1529.22 1158 2317 C775.86 2317 393.72 2317 0 2317 C0 1552.39 0 787.78 0 0 Z " fill="#A9CF46" transform="translate(1949,3362)"/>
<path d="M0 0 C338.91 0 677.82 0 1027 0 C1027 721.38 1027 1442.76 1027 2186 C688.09 2186 349.18 2186 0 2186 C0 1464.62 0 743.24 0 0 Z " fill="#201E1E" transform="translate(60,3427)"/>
<path d="M0 0 C335.28 0 670.56 0 1016 0 C1016 717.75 1016 1435.5 1016 2175 C680.72 2175 345.44 2175 0 2175 C0 1457.25 0 739.5 0 0 Z " fill="#201E1E" transform="translate(3975,3433)"/>
<path d="M0 0 C378.51 0 757.02 0 1147 0 C1147 760.98 1147 1521.96 1147 2306 C769.81 2306.33 392.62 2306.66 4 2307 C-47.48 2321.85 -47.48 2321.85 -100 2337 C-140.12088008 2348.47280666 -140.12088008 2348.47280666 -153.30896759 2352.23332596 C-179.70160962 2359.76063673 -206.08120782 2367.33354468 -232.46216667 2374.90167212 C-237.28899301 2376.28636439 -242.11588281 2377.67083529 -246.94281006 2379.05517578 C-276.0933454 2387.41543024 -305.24254377 2395.78028747 -334.38735813 2404.16046661 C-339.38417251 2405.59717892 -344.38113067 2407.03339026 -349.37818909 2408.46925354 C-350.42130641 2408.76898574 -350.42130641 2408.76898574 -351.48549682 2409.07477313 C-354.95283081 2410.07106632 -358.42018405 2411.06729247 -361.88755131 2412.06346989 C-369.25398943 2414.1799727 -376.61991131 2416.29825521 -383.98517323 2418.41884756 C-389.58979154 2420.03235362 -395.19522664 2421.64300684 -400.80095291 2423.25265884 C-403.0810482 2423.90788452 -405.36087255 2424.56405396 -407.6403923 2425.22127914 C-410.77002756 2426.12347753 -413.90064135 2427.02220334 -417.03149414 2427.92016602 C-417.91240565 2428.17502116 -418.79331717 2428.42987631 -419.70092297 2428.69245434 C-427.76333172 2430.99796185 -435.84741465 2432.96185366 -444 2435 C-443.67 2699 -443.34 2963 -443 3235 C-376.30059792 3253.34557378 -376.30059792 3253.34557378 -309.58078003 3271.61624146 C-302.30438686 3273.60423966 -295.02820232 3275.59300043 -287.75206697 3277.58194196 C-276.51250604 3280.65428806 -265.27285432 3283.72630179 -254.03312933 3286.79804766 C-236.5725499 3291.56993287 -219.11235631 3296.34322862 -201.65234375 3301.1171875 C-200.97030357 3301.30367245 -200.28826338 3301.4901574 -199.58555532 3301.68229342 C-190.04208869 3304.29169733 -180.49865186 3306.90121021 -170.95522833 3309.51077175 C-168.94202209 3310.06126348 -166.92881491 3310.61175179 -164.91560745 3311.16223907 C-129.34462811 3320.88870215 -93.77376549 3330.61559329 -58.20437622 3340.34786987 C-54.06792753 3341.47965121 -49.93143133 3342.61125865 -45.79489136 3343.7427063 C-41.05341996 3345.03963134 -36.31205237 3346.33693512 -31.57077026 3347.634552 C-29.86038859 3348.102593 -28.14997106 3348.57050301 -26.43951416 3349.03826904 C-24.12095239 3349.67236228 -21.80252475 3350.30694363 -19.48413086 3350.94165039 C-18.82173873 3351.12268342 -18.1593466 3351.30371645 -17.47688198 3351.49023533 C-13.30903114 3352.63198951 -9.15566193 3353.81266802 -5 3355 C377.14 3355.33 759.28 3355.66 1153 3356 C1153 4120.61 1153 4885.22 1153 5673 C770.53 5673 388.06 5673 -6 5673 C-6 4924.56 -6 4176.12 -6 3405 C-9.63 3404.34 -13.26 3403.68 -17 3403 C-18.92722281 3402.54080803 -20.84847927 3402.05387609 -22.75561523 3401.51733398 C-23.76302261 3401.23676147 -24.77042999 3400.95618896 -25.80836487 3400.66711426 C-26.8809404 3400.36317749 -27.95351593 3400.05924072 -29.05859375 3399.74609375 C-30.2330455 3399.41806763 -31.40749725 3399.0900415 -32.61753845 3398.7520752 C-35.1915445 3398.03296719 -37.7650288 3397.31222308 -40.33782959 3396.58883667 C-47.60810228 3394.54549079 -54.88436218 3392.52357815 -62.16015625 3390.5 C-62.94278839 3390.28218306 -63.72542053 3390.06436611 -64.5317688 3389.83994865 C-84.14940439 3384.38181065 -103.80258426 3379.0553232 -123.45624161 3373.7286644 C-154.73626394 3365.24983994 -186.00248389 3356.72284174 -217.25 3348.125 C-224.77200607 3346.05551922 -232.29411799 3343.98642361 -239.81640625 3341.91796875 C-241.27389691 3341.51719179 -241.27389691 3341.51719179 -242.76083183 3341.10831833 C-270.21540066 3333.56004709 -297.68085305 3326.05151019 -325.14616394 3318.54244232 C-329.0517014 3317.47465138 -332.95718906 3316.40667842 -336.8626709 3315.33868408 C-547.14138651 3257.83950374 -629.28167214 3275.65273613 -908 3275 C-908 2983.61 -908 2692.22 -908 2392 C-776.66 2391.67 -645.32 2391.34 -510 2391 C-489.54 2385.06 -469.08 2379.12 -448 2373 C-437.12446564 2369.87933344 -426.24842928 2366.76185151 -415.36615372 2363.66501236 C-408.10635381 2361.59799845 -400.84825873 2359.52499555 -393.58984375 2357.453125 C-392.28788087 2357.08154738 -392.28788087 2357.08154738 -390.95961571 2356.70246315 C-366.2046771 2349.63689588 -341.46057006 2342.53352322 -316.71575928 2335.43258667 C-312.79661209 2334.30792735 -308.87743479 2333.18337298 -304.95825195 2332.05883789 C-280.08706928 2324.922489 -255.21622965 2317.78494489 -230.34607124 2310.64502716 C-153.91450961 2288.70292397 -77.45932524 2266.8455215 -1 2245 C-0.67 1504.15 -0.34 763.3 0 0 Z M60 60 C60 781.38 60 1502.76 60 2246 C398.91 2246 737.82 2246 1087 2246 C1087 1524.62 1087 803.24 1087 60 C748.09 60 409.18 60 60 60 Z M66 3427 C66 4144.75 66 4862.5 66 5602 C401.28 5602 736.56 5602 1082 5602 C1082 4884.25 1082 4166.5 1082 3427 C746.72 3427 411.44 3427 66 3427 Z " fill="#FDFDFD" transform="translate(3909,6)"/>
<path d="M0 0 C378.51 0 757.02 0 1147 0 C1147 743.49 1147 1486.98 1147 2253 C1150.63 2253.66 1154.26 2254.32 1158 2255 C1160.50031506 2255.59717989 1162.99312817 2256.22720833 1165.47485352 2256.89746094 C1166.14639465 2257.07749161 1166.81793579 2257.25752228 1167.50982666 2257.44300842 C1169.71734323 2258.03592611 1171.92310057 2258.63512677 1174.12890625 2259.234375 C1175.72506627 2259.66440136 1177.32133715 2260.09401638 1178.91770935 2260.52325439 C1182.33899013 2261.44407278 1185.75950789 2262.36765475 1189.17944336 2263.29345703 C1194.65945047 2264.77690163 1200.1411169 2266.25414817 1205.62304688 2267.73046875 C1212.31825472 2269.53393536 1219.01308359 2271.33879575 1225.70741844 2273.14550018 C1237.39475105 2276.29958315 1249.08497635 2279.44276082 1260.77734375 2282.578125 C1261.61438969 2282.80258804 1262.45143562 2283.02705109 1263.31384659 2283.25831604 C1267.5233125 2284.38706392 1271.73283452 2285.51560238 1275.94238281 2286.64404297 C1283.62401412 2288.70333953 1291.30515386 2290.7644684 1298.98633194 2292.82545471 C1301.55556645 2293.51481274 1304.12481192 2294.20412992 1306.69406128 2294.89343262 C1317.62283111 2297.82551005 1328.55150423 2300.75794778 1339.48013687 2303.6905365 C1347.00757037 2305.71043547 1354.53502772 2307.73024555 1362.0625 2309.75 C1362.89528473 2309.97345093 1363.72806946 2310.19690186 1364.58609009 2310.42712402 C1393.88941648 2318.28963913 1423.19444705 2326.14578834 1452.5 2334 C1475.83252333 2340.25337379 1499.16504341 2346.50675734 1522.49609375 2352.765625 C1523.24652514 2352.96693779 1523.99695652 2353.16825058 1524.77012825 2353.37566376 C1544.18033794 2358.58283468 1563.59008698 2363.79172381 1583 2369 C1735.13957953 2409.81793597 1897.48050145 2391.59610385 2055 2392 C2055 2683.39 2055 2974.78 2055 3275 C1845.615 3275.495 1845.615 3275.495 1632 3276 C1573.35598638 3293.20154366 1573.35598638 3293.20154366 1514.71380615 3310.40933228 C1509.97913889 3311.79897385 1505.24445117 3313.18854573 1500.50976562 3314.578125 C1493.58131054 3316.61155685 1486.65286017 3318.6450048 1479.72441673 3320.67847633 C1467.12751177 3324.37561742 1454.5305638 3328.07261196 1441.93359375 3331.76953125 C1440.98682329 3332.04738653 1440.04005283 3332.32524181 1439.06459236 3332.61151695 C1434.28735535 3334.01352502 1429.51011765 3335.41553074 1424.73287964 3336.8175354 C1416.11393919 3339.34698872 1407.49500486 3341.87646286 1398.87607002 3344.40593529 C1394.08404693 3345.81229103 1389.29202344 3347.21864545 1384.5 3348.625 C1382.58333333 3349.18749999 1380.66666666 3349.74999999 1378.75 3350.3125 C1374.91666667 3351.4375 1371.08333333 3352.5625 1367.25 3353.6875 C1365.82685092 3354.10516333 1365.82685092 3354.10516333 1364.37495136 3354.53126431 C1362.45844684 3355.0937167 1360.5419423 3355.65616901 1358.62543774 3356.21862125 C1353.83129004 3357.62559902 1349.03714273 3359.03257812 1344.24299622 3360.43955994 C1335.64762308 3362.96212095 1327.05224736 3365.48467312 1318.45685673 3368.00717449 C1313.70430878 3369.40191174 1308.95176316 3370.79665692 1304.19921875 3372.19140625 C1303.25666418 3372.46802156 1302.31410961 3372.74463688 1301.34299278 3373.02963448 C1288.37725508 3376.83475859 1275.41162472 3380.64024831 1262.44607544 3384.4460144 C1255.22209427 3386.56646127 1247.99808276 3388.68680474 1240.77406502 3390.807127 C1234.97538452 3392.50910842 1229.17674231 3394.21122022 1223.37813282 3395.91344357 C1219.7394657 3396.98156235 1216.10075825 3398.04954369 1212.46204185 3399.11749458 C1210.83254071 3399.59577526 1209.20305416 3400.07410568 1207.57358742 3400.55250359 C1187.71954991 3406.38140901 1167.85889516 3412.18764044 1148 3418 C1147.67 4160.17 1147.34 4902.34 1147 5667 C768.49 5667 389.98 5667 0 5667 C0 4906.02 0 4145.04 0 3361 C558.36 3360.505 558.36 3360.505 1128 3360 C1169.48453538 3347.94607371 1169.48453538 3347.94607371 1210.93945312 3335.79244995 C1217.21673185 3333.94186509 1223.49486032 3332.09416707 1229.77293777 3330.24629402 C1231.28655473 3329.8007706 1232.80016302 3329.35521777 1234.31376266 3328.90963554 C1253.73223951 3323.19316363 1273.1557054 3317.49369541 1292.57925797 3311.79449844 C1295.5090939 3310.93483168 1298.43892034 3310.07513253 1301.3687439 3309.21542358 C1309.29067284 3306.89086926 1317.21261565 3304.56636221 1325.13459778 3302.24198914 C1338.78779164 3298.23603244 1352.44083365 3294.22955863 1366.09375 3290.22265625 C1367.04034925 3289.94484692 1367.98694851 3289.66703758 1368.96223259 3289.38080978 C1378.49765795 3286.58233685 1388.03306502 3283.7838016 1397.56844616 3280.98517799 C1402.33859332 3279.58514963 1407.10874801 3278.1851469 1411.87890625 3276.78515625 C1413.29658641 3276.36908049 1413.29658641 3276.36908049 1414.74290657 3275.94459915 C1427.50973116 3272.19770114 1440.27686746 3268.45186712 1453.04426575 3264.70692444 C1460.0551336 3262.65048532 1467.06590489 3260.59371714 1474.0766592 3258.53689098 C1478.96743522 3257.1020585 1483.85826985 3255.66742646 1488.74923706 3254.23324585 C1507.15524019 3248.83597039 1525.56019371 3243.43559628 1543.94908714 3237.98026085 C1546.18521584 3237.31695227 1548.42148056 3236.65410437 1550.65779114 3235.9914093 C1552.08444611 3235.56858639 1553.51109718 3235.14575032 1554.93774414 3234.72290039 C1555.96803852 3234.41753089 1555.96803852 3234.41753089 1557.01914692 3234.10599232 C1560.33885833 3233.12164155 1563.65801824 3232.13549727 1566.9760437 3231.14547729 C1570.51560039 3230.08974436 1574.05648561 3229.03858521 1577.59765625 3227.98828125 C1578.62400177 3227.68038666 1579.65034729 3227.37249207 1580.70779419 3227.05526733 C1582.09972488 3226.6437291 1582.09972488 3226.6437291 1583.51977539 3226.22387695 C1584.31928116 3225.98554642 1585.11878693 3225.74721588 1585.94252014 3225.50166321 C1588 3225 1588 3225 1591 3225 C1591 2963.97 1591 2702.94 1591 2434 C1585.39 2432.68 1579.78 2431.36 1574 2430 C1570.89413445 2429.20847763 1567.79770896 2428.40965232 1564.70507812 2427.57177734 C1563.91015426 2427.3587862 1563.11523039 2427.14579506 1562.29621792 2426.92634964 C1559.70722584 2426.23201114 1557.11924027 2425.53399977 1554.53125 2424.8359375 C1552.64805814 2424.33011763 1550.76480117 2423.82454011 1548.88148499 2423.31918335 C1544.8579276 2422.23900578 1540.83480969 2421.15721232 1536.81204224 2420.07409668 C1530.37661276 2418.34139587 1523.94021179 2416.61232324 1517.50366211 2414.88378906 C1509.6329512 2412.76988088 1501.76246059 2410.65515629 1493.89225292 2408.53937531 C1479.8998779 2404.7778716 1465.90562114 2401.02342726 1451.91015625 2397.2734375 C1450.89802944 2397.00223965 1449.88590263 2396.73104179 1448.84310532 2396.45162582 C1444.78013923 2395.3629848 1440.71716035 2394.27439159 1436.65416145 2393.18587303 C1425.52047494 2390.20304056 1414.38715406 2387.21884443 1403.25390625 2384.234375 C1402.26732151 2383.96990696 1401.28073677 2383.70543892 1400.26425552 2383.4329567 C1378.18345559 2377.513796 1356.10397798 2371.58970973 1334.02468872 2365.66491699 C1303.81045467 2357.55723011 1273.59420061 2349.45709009 1243.37734985 2341.35916138 C1221.17126653 2335.40805624 1198.96565584 2329.45520225 1176.76171875 2323.49609375 C1174.81873608 2322.97465904 1172.87575309 2322.45322551 1170.93276978 2321.93179321 C1162.67419178 2319.71541694 1154.41566775 2317.49884032 1146.15736675 2315.28143215 C1142.84914893 2314.39321884 1139.54085984 2313.50527122 1136.23255348 2312.61738777 C1134.70749395 2312.2080226 1133.18246745 2311.79853439 1131.65747643 2311.38891411 C1129.5857801 2310.83245293 1127.5139729 2310.27640645 1125.44213867 2309.72045898 C1124.2868718 2309.41027328 1123.13160492 2309.10008759 1121.94132996 2308.78050232 C760.46965343 2212.86148401 373.98144139 2306.33540936 0 2306 C0 1545.02 0 784.04 0 0 Z M60 60 C60 781.38 60 1502.76 60 2246 C398.91 2246 737.82 2246 1087 2246 C1087 1524.62 1087 803.24 1087 60 C748.09 60 409.18 60 60 60 Z M60 3421 C60 4142.38 60 4863.76 60 5607 C398.91 5607 737.82 5607 1087 5607 C1087 4885.62 1087 4164.24 1087 3421 C748.09 3421 409.18 3421 60 3421 Z " fill="#FDFDFD" transform="translate(0,6)"/>
<path d="M0 0 C382.14 0 764.28 0 1158 0 C1158 764.94 1158 1529.88 1158 2318 C775.86 2318 393.72 2318 0 2318 C0 1553.06 0 788.12 0 0 Z M71 71 C71 788.75 71 1506.5 71 2246 C406.28 2246 741.56 2246 1087 2246 C1087 1528.25 1087 810.5 1087 71 C751.72 71 416.44 71 71 71 Z " fill="#FDFDFD" transform="translate(1949,0)"/>
<path d="M0 0 C382.14 0 764.28 0 1158 0 C1158 764.61 1158 1529.22 1158 2317 C775.86 2317 393.72 2317 0 2317 C0 1552.39 0 787.78 0 0 Z M71 71 C71 788.75 71 1506.5 71 2246 C406.28 2246 741.56 2246 1087 2246 C1087 1528.25 1087 810.5 1087 71 C751.72 71 416.44 71 71 71 Z " fill="#FDFDFD" transform="translate(1949,3362)"/>
<path d="M0 0 C129.69 0 259.38 0 393 0 C393 267.63 393 535.26 393 811 C263.31 811 133.62 811 0 811 C0 543.37 0 275.74 0 0 Z " fill="#A8CE45" transform="translate(2332,2434)"/>
<path d="M0 0 C105.93 0 211.86 0 321 0 C321 243.87 321 487.74 321 739 C215.07 739 109.14 739 0 739 C0 495.13 0 251.26 0 0 Z " fill="#201E1E" transform="translate(3073,2470)"/>
<path d="M0 0 C105.93 0 211.86 0 321 0 C321 243.87 321 487.74 321 739 C215.07 739 109.14 739 0 739 C0 495.13 0 251.26 0 0 Z " fill="#201E1E" transform="translate(1662,2470)"/>
</svg>
